<?xml version="1.0" standalone="no"?>
<!DOCTYPE svg PUBLIC "-//W3C//DTD SVG 20010904//EN"
 "http://www.w3.org/TR/2001/REC-SVG-20010904/DTD/svg10.dtd">
<svg version="1.0" xmlns="http://www.w3.org/2000/svg"
 width="273.000000pt" height="184.000000pt" viewBox="0 0 273.000000 184.000000"
 preserveAspectRatio="xMidYMid meet">
<metadata>
Created by potrace 1.16, written by Peter Selinger 2001-2019
</metadata>
<g transform="translate(0.000000,184.000000) scale(0.100000,-0.100000)"
fill="#000000" stroke="none">
<path d="M856 1765 c4 -9 13 -14 20 -11 10 4 14 -3 14 -19 0 -22 4 -25 37 -25
20 0 33 -3 29 -7 -4 -4 -24 -7 -44 -8 -28 0 -36 -4 -33 -15 2 -8 4 -20 4 -27
0 -7 5 -9 10 -6 11 7 28 -17 20 -30 -3 -5 -9 -4 -13 2 -4 7 -16 13 -28 14 -11
0 -19 4 -16 8 2 4 -1 11 -7 15 -7 4 -9 3 -6 -3 10 -15 -17 -35 -37 -27 -13 5
-16 -2 -15 -42 0 -27 3 -42 7 -34 7 16 52 27 52 13 0 -5 -9 -15 -20 -23 -11
-8 -20 -20 -20 -27 0 -7 -7 -13 -15 -13 -14 0 -19 11 -16 36 1 7 -11 10 -31 8
-40 -5 -50 -14 -14 -14 19 0 29 -6 33 -20 3 -11 13 -20 23 -20 19 0 72 -39 54
-40 -5 0 -15 5 -22 12 -6 6 -35 12 -64 13 -65 2 -88 11 -88 36 0 10 -5 19 -12
19 -6 0 5 16 25 35 26 25 33 37 23 41 -24 9 -7 52 23 57 23 4 22 4 -6 6 -22 0
-33 -4 -33 -13 0 -9 -8 -12 -27 -8 -18 3 -22 7 -13 10 16 5 30 21 30 36 0 5
-7 3 -15 -4 -9 -7 -18 -10 -22 -6 -3 3 -1 6 5 6 19 0 14 20 -5 20 -17 1 -17 1
0 14 9 7 17 16 17 19 0 3 -8 4 -17 3 -15 -2 -18 -15 -20 -67 -1 -35 0 -58 3
-51 3 6 17 12 30 12 20 0 24 -5 24 -30 0 -25 -4 -30 -25 -30 -19 0 -23 4 -19
18 4 10 3 13 -3 6 -18 -23 -49 -32 -99 -27 -29 3 -59 1 -70 -5 -16 -10 -11
-11 28 -12 26 0 49 -4 52 -8 6 -11 -5 -28 -24 -35 -8 -3 0 -6 18 -6 29 -1 33
2 30 22 -2 18 2 23 26 25 18 2 26 0 22 -7 -7 -11 35 -59 74 -84 16 -10 41 -14
72 -12 52 4 73 -9 33 -19 -14 -4 -25 -11 -25 -16 0 -6 -5 -10 -11 -10 -5 0 -8
4 -5 8 3 5 -8 7 -23 4 -23 -3 -35 3 -61 32 -62 68 -66 60 -65 -154 l0 -191
-110 1 c-60 1 -127 1 -147 1 l-38 -1 0 -333 0 -334 -42 1 -43 1 -3 -147 -3
-147 43 -3 43 -3 3 -47 3 -47 142 -3 c123 -3 347 5 309 10 -18 3 -51 43 -52
62 0 28 30 60 56 60 17 0 23 4 18 12 -4 7 -3 8 5 4 6 -4 9 -11 6 -16 -3 -4 2
-13 10 -20 18 -15 20 -51 3 -68 -7 -7 -8 -12 -4 -12 5 0 3 -7 -4 -15 -11 -13
83 -15 839 -15 l851 0 0 35 c0 28 9 45 41 80 l40 44 1 536 c0 535 0 537 -21
552 -12 8 -19 18 -16 22 2 5 -7 19 -20 31 -25 23 -25 25 -25 199 0 97 -3 186
-6 197 -6 22 -7 22 -360 23 -334 2 -354 1 -354 -16 -1 -17 -1 -17 -14 -1 -12
16 -48 17 -450 18 -241 0 -442 2 -447 5 -5 4 -6 -1 -3 -10z m339 -165 c-3 -5
-2 -10 3 -10 5 0 9 -12 8 -27 -1 -24 3 -28 29 -29 50 -2 56 -4 51 -13 -4 -5
-3 -16 0 -25 5 -14 44 -16 340 -15 l333 2 -3 21 c-2 11 -7 20 -12 18 -5 -2 -8
-9 -7 -15 2 -8 -14 -13 -47 -13 -46 0 -50 2 -50 23 0 14 6 23 15 23 9 0 12 -6
9 -17 -5 -17 -5 -17 6 0 11 17 36 25 26 8 -3 -5 1 -12 10 -15 12 -4 15 -2 10
9 -4 11 2 15 27 15 29 0 33 -3 32 -26 0 -20 6 -28 22 -30 12 -2 25 1 28 6 3 6
-5 10 -19 10 -28 0 -29 1 -20 24 8 21 24 20 25 -1 1 -17 2 -17 6 0 9 35 27 17
26 -29 0 -6 9 -10 21 -9 15 1 20 8 18 23 -2 11 2 24 9 28 8 4 9 3 5 -4 -16
-26 11 -48 56 -46 23 1 60 2 81 3 33 1 37 4 37 29 0 20 3 23 9 13 5 -8 7 -20
4 -28 -4 -10 11 -13 70 -13 42 0 79 -4 82 -10 4 -7 -197 -10 -594 -10 -582 0
-601 1 -601 19 0 19 -37 36 -42 19 -2 -5 -14 3 -28 19 -14 15 -18 22 -10 16
22 -20 35 -15 17 5 -22 24 -22 49 1 55 9 3 18 5 20 6 2 0 0 -3 -3 -9z m-117
-181 c-1 -15 -7 -27 -12 -26 -5 1 -11 -7 -13 -18 -3 -11 -7 -27 -10 -35 -3 -8
-5 -21 -4 -28 1 -6 -3 -20 -9 -30 -9 -14 -10 -12 -5 11 4 20 2 27 -10 27 -8 0
-15 -5 -15 -11 0 -8 -5 -8 -15 1 -11 9 -15 9 -15 1 0 -7 -5 -9 -12 -4 -7 4
-23 6 -36 4 -13 -1 -31 4 -41 13 -15 14 -18 13 -29 -4 -10 -16 -9 -21 6 -28 9
-5 32 -7 50 -5 17 1 32 -2 32 -7 0 -18 -84 -12 -96 8 -17 28 -18 102 -1 102 8
0 22 9 32 20 17 18 17 20 2 14 -11 -4 -17 -1 -16 7 1 31 15 45 44 45 39 -1 49
-41 13 -55 -20 -8 -18 -9 15 -9 39 1 56 12 37 23 -21 13 -10 32 20 31 34 -1
42 -28 13 -46 -17 -10 -16 -11 2 -8 26 4 35 47 16 78 -12 20 -8 19 22 -9 27
-26 36 -42 35 -62z m470 -5 c19 -15 37 -22 41 -17 16 23 59 43 94 43 82 0 127
-94 74 -155 -16 -20 -35 -28 -68 -32 -41 -5 -50 -2 -79 24 l-32 29 -28 -28
c-22 -22 -38 -28 -70 -28 -53 0 -84 22 -104 72 l-17 40 -54 -4 c-30 -1 -55 1
-55 5 0 5 29 7 65 5 48 -2 65 0 65 10 0 7 12 24 26 37 37 35 95 34 142 -1z
m-417 -134 c16 0 29 -6 30 -12 0 -10 2 -10 6 0 6 15 123 17 123 2 0 -16 32
-12 54 8 20 16 20 16 7 -1 -18 -23 -7 -34 15 -16 15 12 17 12 12 -1 -4 -11
-17 -14 -52 -12 -26 2 -53 -1 -60 -8 -16 -13 -86 -10 -86 4 0 5 -11 -1 -25
-14 -24 -22 -24 -25 -8 -31 10 -4 22 -4 27 -1 5 3 28 5 50 5 23 0 48 5 56 12
17 15 60 29 60 20 0 -3 -11 -10 -25 -15 -15 -6 -25 -17 -25 -30 0 -24 -24 -31
-100 -30 -30 1 -72 -2 -92 -6 -21 -3 -38 -3 -38 1 0 4 19 25 43 47 27 26 30
31 9 14 -19 -14 -38 -23 -44 -20 -5 3 0 11 13 18 12 6 24 17 27 24 3 11 1 11
-17 1 -16 -11 -23 -11 -33 -1 -10 10 -8 16 6 30 18 16 18 16 7 -5 -7 -14 -8
-23 -2 -23 15 0 26 22 24 50 -1 15 0 18 3 8 4 -12 15 -18 35 -18z m1409 -20
c29 -29 27 -94 -2 -114 -12 -9 -18 -16 -13 -16 6 0 1 -7 -9 -15 -19 -15 -19
-15 1 -15 11 0 26 -7 33 -15 8 -9 9 -15 2 -15 -6 0 -13 4 -16 9 -9 14 -132 12
-144 -2 -5 -7 -12 -21 -16 -32 -3 -11 -4 -6 -2 11 1 23 -1 31 -11 27 -20 -8
-15 11 7 25 12 7 20 8 20 2 0 -5 10 -10 23 -9 21 0 21 1 2 9 -17 7 -17 9 -2 9
9 1 17 6 17 12 0 6 7 8 16 5 12 -4 15 -2 10 9 -3 9 0 15 10 15 13 0 12 5 -5
26 -12 15 -21 30 -21 34 0 4 9 19 21 34 24 31 52 33 79 6z m-1053 -61 c-3 -11
-1 -22 4 -25 5 -3 9 6 9 20 0 23 4 25 35 24 28 -1 35 -5 36 -22 1 -20 1 -20 6
-1 9 36 23 40 23 6 0 -21 4 -30 11 -25 6 3 9 15 6 25 -4 16 1 19 34 19 24 0
39 -5 40 -12 0 -7 4 -4 9 7 7 17 9 14 11 -15 2 -31 2 -32 6 -7 3 21 10 27 30
27 22 0 25 -4 21 -25 l-5 -25 133 0 c77 0 134 -4 134 -9 0 -6 -15 -11 -32 -13
-28 -3 -30 -5 -14 -13 11 -5 30 -4 46 2 16 6 34 7 41 2 8 -5 47 -9 87 -9 39 0
72 -3 72 -8 0 -4 -41 -4 -92 -1 -87 6 -128 -1 -128 -23 0 -5 -5 -8 -11 -8 -6
0 -9 7 -5 15 5 14 -14 21 -26 10 -3 -3 -140 -7 -304 -10 -349 -4 -372 -6 -384
-25 -5 -8 -10 -10 -10 -5 0 6 -12 11 -26 11 -19 2 -24 -2 -20 -15 5 -13 4 -13
-8 2 -8 10 -16 14 -17 10 -2 -4 -58 -6 -124 -3 l-120 5 100 8 c194 16 253 19
585 26 l335 8 -335 -2 c-184 -1 -393 -4 -465 -7 -76 -3 -109 -2 -80 2 28 5 96
9 152 9 56 1 104 5 108 10 3 6 -8 8 -27 6 -69 -9 -283 -13 -238 -5 25 5 91 9
147 9 56 1 105 5 108 11 3 6 14 10 25 10 11 0 20 10 24 25 8 31 24 32 36 3 9
-23 9 -23 9 -1 1 12 7 23 14 26 21 7 39 -5 34 -24z m-597 -99 c0 -5 -10 -10
-22 -10 -21 0 -58 -26 -58 -41 0 -4 29 -6 64 -6 35 1 62 5 60 9 -3 4 3 5 12 1
12 -4 15 -3 10 5 -5 8 16 11 76 11 60 0 78 -3 65 -10 -10 -6 -14 -15 -10 -22
12 -19 14 -47 3 -47 -6 0 -10 10 -10 21 0 18 -2 19 -15 9 -8 -7 -24 -10 -35
-7 -11 3 -18 1 -14 -4 3 -5 0 -9 -5 -9 -6 0 -11 5 -11 11 0 5 -5 7 -10 4 -22
-14 4 -26 43 -21 22 3 38 3 35 0 -5 -5 10 -24 65 -81 22 -23 11 -33 -11 -11
-9 9 -12 8 -12 -4 0 -9 -4 -19 -8 -22 -4 -2 -6 10 -4 28 3 22 -2 37 -14 47
-16 13 -16 12 -6 -8 16 -30 15 -40 -8 -63 -18 -18 -33 -20 -144 -20 -118 0
-126 1 -140 22 -11 16 -16 18 -16 7 0 -21 20 -39 44 -40 19 -1 19 -2 3 -6 -27
-7 -67 35 -67 70 0 21 10 39 34 61 27 24 33 35 25 46 -8 12 -9 12 -7 -4 2 -10
-2 -21 -8 -23 -7 -2 -10 7 -8 27 3 24 0 30 -16 30 -15 0 -18 -5 -14 -26 4 -21
2 -25 -11 -21 -8 4 -15 1 -15 -5 0 -6 -3 -8 -6 -5 -4 4 -1 13 6 22 7 9 10 18
6 22 -3 3 -6 1 -6 -6 0 -8 -7 -10 -19 -6 -11 3 -22 1 -26 -5 -11 -18 -25 -11
-25 13 0 12 10 33 21 47 19 23 19 23 9 2 -6 -12 -9 -26 -6 -31 8 -12 116 15
129 33 7 8 23 17 37 19 14 2 28 5 33 6 4 0 7 -3 7 -9z m511 -20 c6 0 8 3 6 8
-3 4 62 6 143 4 l149 -3 73 -74 c56 -58 79 -75 100 -75 16 0 28 -4 28 -10 0
-5 7 -10 16 -10 8 0 12 -5 9 -11 -5 -7 -13 -5 -24 5 -10 9 -26 16 -37 16 -10
0 -51 32 -91 72 -40 40 -75 70 -78 67 -3 -3 22 -32 55 -64 32 -33 57 -61 54
-64 -2 -3 -30 21 -62 52 l-58 57 -110 0 c-60 0 -114 -4 -119 -9 -13 -12 -97
-19 -85 -7 4 4 21 8 37 8 15 0 37 7 48 15 19 14 17 15 -20 10 -39 -4 -73 12
-57 28 4 3 8 1 10 -4 2 -6 8 -11 13 -11z m369 -135 l95 -95 198 0 c130 0 196
-3 192 -10 -4 -6 15 -10 49 -10 30 0 56 -5 58 -10 2 -6 13 -12 26 -13 12 0 22
-5 22 -9 0 -21 -66 -28 -249 -28 -216 0 -330 8 -309 21 9 6 -14 36 -87 108
l-100 100 -67 1 c-39 0 -68 4 -68 10 0 6 28 10 63 10 l62 0 95 -96 c102 -103
127 -119 162 -104 23 9 22 10 -22 14 -16 2 -60 37 -125 99 l-99 97 -91 0 -91
0 -44 -45 c-35 -35 -51 -45 -77 -45 -30 0 -33 -3 -33 -30 0 -16 5 -30 12 -30
6 0 9 -2 7 -5 -10 -9 -49 8 -49 21 0 10 -15 14 -57 14 -53 -1 -56 -2 -39 -15
12 -9 16 -18 10 -23 -5 -4 -25 7 -44 26 -19 18 -27 30 -17 26 14 -5 17 0 17
30 0 32 3 36 24 36 14 0 28 5 31 10 3 6 11 10 16 10 6 0 7 -4 4 -10 -6 -10 43
-15 93 -11 14 1 22 -4 22 -14 0 -27 35 -16 75 25 l39 40 101 0 100 0 95 -95z
m50 -240 c0 -8 9 -15 20 -15 14 0 18 5 13 16 -5 12 0 15 23 12 17 -2 28 -8 27
-15 -2 -7 6 -13 17 -13 11 0 19 6 18 13 -2 7 9 13 25 15 19 2 27 -1 27 -12 0
-9 7 -16 15 -16 8 0 15 7 15 16 0 11 8 14 28 12 15 -2 26 -8 25 -15 -2 -7 6
-13 17 -13 11 0 20 7 20 15 0 9 9 15 25 15 16 0 25 -6 25 -15 0 -8 7 -15 15
-15 8 0 15 7 15 15 0 9 9 15 25 15 14 0 28 -7 31 -15 4 -8 12 -15 20 -15 8 0
14 7 14 15 0 9 9 15 25 15 16 0 25 -6 25 -15 0 -8 9 -15 20 -15 13 0 18 5 14
15 -4 10 0 15 15 15 12 0 21 -6 21 -14 0 -8 6 -16 13 -19 6 -3 -135 -5 -315
-6 -269 0 -327 2 -331 13 -7 19 1 26 30 26 14 0 23 -6 23 -15z m-879 -239 c-8
-20 -7 -26 3 -26 8 0 26 -14 40 -31 34 -40 36 -93 4 -110 -12 -6 -31 -20 -42
-30 -30 -29 -72 -24 -106 11 -38 39 -41 95 -7 132 13 14 21 31 18 39 -4 12 -2
12 12 1 19 -16 38 -8 30 13 -3 10 1 15 15 15 12 0 24 5 27 11 12 19 16 2 6
-25z m235 -4 c-5 -13 1 -23 20 -32 42 -23 64 -81 48 -124 -5 -13 -23 -16 -94
-16 -96 0 -100 3 -100 62 0 33 47 88 76 88 14 0 15 3 6 12 -20 20 -14 28 19
28 25 0 29 -3 25 -18z m-486 -158 l-8 -29 -1 35 c-1 20 -5 30 -9 23 -4 -7 -16
-12 -27 -12 -11 0 -31 -2 -44 -3 -14 -2 -26 3 -29 11 -3 10 2 13 21 9 15 -3
28 -1 29 3 2 5 15 10 31 11 15 1 27 5 27 8 0 4 -70 6 -156 5 -107 0 -161 3
-172 11 -10 7 -14 15 -11 18 3 3 68 7 145 9 76 3 150 9 164 14 23 10 25 8 37
-37 7 -30 9 -58 3 -76z m1850 31 c7 -8 14 -35 15 -60 2 -36 -1 -47 -17 -56
-23 -12 -64 -8 -61 6 1 6 -6 19 -16 30 -10 11 -21 27 -24 36 -3 11 -14 15 -34
12 -24 -4 -29 -1 -29 16 0 18 6 21 33 19 22 -1 33 -7 33 -17 0 -11 5 -9 16 7
18 26 65 30 84 7z"/>
</g>
</svg>
